HIERARCHY
ROOT Hips
{
	OFFSET 0.000000 0.000000 0.000000
	CHANNELS 6 Xposition Yposition Zposition Xrotation Yrotation Zrotation
	JOINT LeftUpLeg_virtual
	{
		OFFSET 0.000000 0.000000 0.000000
		CHANNELS 3 Xrotation Yrotation Zrotation
		JOINT LeftUpLeg
		{
			OFFSET 11.394100 -6.187798 -0.413800
			CHANNELS 3 Xrotation Yrotation Zrotation
			JOINT LeftLeg
			{
				OFFSET 0.430247 -32.302673 3.732800
				CHANNELS 3 Xrotation Yrotation Zrotation
				JOINT LeftFoot
				{
					OFFSET -0.430247 -48.264931 -6.423300
					CHANNELS 3 Xrotation Yrotation Zrotation
					JOINT LeftToeBase
					{
						OFFSET 4.230900 -16.068199 23.438400
						CHANNELS 3 Xrotation Yrotation Zrotation
						JOINT LeftToe_End
						{
							OFFSET 4.510700 0.695400 19.974600
							CHANNELS 3 Xrotation Yrotation Zrotation
							End Site
							{
								OFFSET 0 0 0
							}
						}
					}
				}
			}
		}
	}
	JOINT RightUpLeg_virtual
	{
		OFFSET 0.000000 0.000000 0.000000
		CHANNELS 3 Xrotation Yrotation Zrotation
		JOINT RightUpLeg
		{
			OFFSET -11.333700 -6.187798 -0.413800
			CHANNELS 3 Xrotation Yrotation Zrotation
			JOINT RightLeg
			{
				OFFSET -0.430392 -32.302628 3.733000
				CHANNELS 3 Xrotation Yrotation Zrotation
				JOINT RightFoot
				{
					OFFSET 0.430392 -48.264973 -6.423500
					CHANNELS 3 Xrotation Yrotation Zrotation
					JOINT RightToeBase
					{
						OFFSET -4.230900 -16.068199 23.438400
						CHANNELS 3 Xrotation Yrotation Zrotation
						JOINT RightToe_End
						{
							OFFSET -4.510700 0.695400 19.974600
							CHANNELS 3 Xrotation Yrotation Zrotation
							End Site
							{
								OFFSET 0 0 0
							}
						}
					}
				}
			}
		}
	}
	JOINT Spine_virtual
	{
		OFFSET 0.000000 0.000000 0.000000
		CHANNELS 3 Xrotation Yrotation Zrotation
		JOINT Spine
		{
			OFFSET -0.002400 12.777504 0.315300
			CHANNELS 3 Xrotation Yrotation Zrotation
			JOINT Spine1
			{
				OFFSET -0.002067 5.816869 0.032633
				CHANNELS 3 Xrotation Yrotation Zrotation
				JOINT Spine1_split
				{
					OFFSET -0.002067 5.816869 0.032633
					CHANNELS 3 Xrotation Yrotation Zrotation
					JOINT Spine2
					{
						OFFSET -0.002067 5.816869 0.032633
						CHANNELS 3 Xrotation Yrotation Zrotation
						JOINT Neck_virtual
						{
							OFFSET 0.000000 0.000000 0.000000
							CHANNELS 3 Xrotation Yrotation Zrotation
							JOINT Neck
							{
								OFFSET -0.003700 21.199493 -0.826900
								CHANNELS 3 Xrotation Yrotation Zrotation
								JOINT Head
								{
									OFFSET 0.000000 20.442200 4.834800
									CHANNELS 3 Xrotation Yrotation Zrotation
									JOINT HeadTop_End
									{
										OFFSET 0.000000 34.668396 4.968400
										CHANNELS 3 Xrotation Yrotation Zrotation
										End Site
										{
											OFFSET 0 0 0
										}
									}
								}
							}
						}
						JOINT LeftShoulder_virtual
						{
							OFFSET 0.000000 0.000000 0.000000
							CHANNELS 3 Xrotation Yrotation Zrotation
							JOINT LeftShoulder
							{
								OFFSET 3.288150 8.794197 -1.372250
								CHANNELS 3 Xrotation Yrotation Zrotation
								JOINT LeftShoulder_split
								{
									OFFSET 3.288150 8.794197 -1.372250
									CHANNELS 3 Xrotation Yrotation Zrotation
									JOINT LeftArm
									{
										OFFSET 11.953299 -2.279007 -0.146200
										CHANNELS 3 Xrotation Yrotation Zrotation
										JOINT LeftForeArm
										{
											OFFSET 18.448900 0.000000 0.000000
											CHANNELS 3 Xrotation Yrotation Zrotation
											JOINT LeftHand
											{
												OFFSET 29.527798 0.000000 0.000000
												CHANNELS 3 Xrotation Yrotation Zrotation
												End Site
												{
													OFFSET 0 0 0
												}
											}
										}
									}
								}
							}
						}
						JOINT RightShoulder_virtual
						{
							OFFSET 0.000000 0.000000 0.000000
							CHANNELS 3 Xrotation Yrotation Zrotation
							JOINT RightShoulder
							{
								OFFSET -3.249400 8.794197 -1.372250
								CHANNELS 3 Xrotation Yrotation Zrotation
								JOINT RightShoulder_split
								{
									OFFSET -3.249400 8.794197 -1.372250
									CHANNELS 3 Xrotation Yrotation Zrotation
									JOINT RightArm
									{
										OFFSET -11.953299 -2.279007 -0.146200
										CHANNELS 3 Xrotation Yrotation Zrotation
										JOINT RightForeArm
										{
											OFFSET -18.448900 0.000000 0.000000
											CHANNELS 3 Xrotation Yrotation Zrotation
											JOINT RightHand
											{
												OFFSET -29.527802 0.000000 0.000000
												CHANNELS 3 Xrotation Yrotation Zrotation
												End Site
												{
													OFFSET 0 0 0
												}
											}
										}
									}
								}
							}
						}
					}
				}
			}
		}
	}
}
MOTION
Frames: 9
Frame Time: 0.03333333
-7.225099 90.271980 2.620781 0.000000 0.000000 0.000000 -16.482928 -66.275737 -17.909681 -38.408848 -3.367449 25.949620 42.778735 10.042899 -5.251974 1.803135 2.388186 -12.677821 2.326797 2.185530 0.317956 0.000000 0.000000 0.000000 -17.559412 -59.915744 -15.735011 -25.934247 -20.393239 -19.500357 44.480794 -9.306370 1.065129 -14.670662 -4.999951 16.295219 -5.669468 -3.761642 9.888881 0.000000 0.000000 0.000000 -25.257030 -63.680169 -22.439552 5.485250 12.466700 4.353300 2.638094 2.389944 1.571838 0.177012 3.539797 0.438771 0.000000 0.000000 0.000000 13.923797 5.538852 -2.045715 12.367376 7.724252 -2.312571 24.555218 42.659336 -12.200075 0.000000 0.000000 0.000000 13.662498 4.820982 -1.830989 9.781099 -10.791427 -7.172008 -1.040873 -14.641958 -3.812697 3.962148 -11.982950 -34.953739 -86.424631 7.588906 -80.605870 0.000000 0.000000 0.000000 13.992779 6.087747 0.005359 3.133428 5.142651 -10.286273 -1.764139 -2.606668 -12.104315 -10.488398 32.006068 41.595073 -66.574400 74.168737 55.171253 0.000000 0.000000 0.000000 
-7.541517 90.570129 3.896889 0.000000 0.000000 0.000000 -16.485816 -66.320823 -17.818164 -38.229436 -2.307895 26.419134 43.336611 9.743503 -5.349016 1.350493 2.242484 -12.379809 1.751118 2.056680 1.085020 0.000000 0.000000 0.000000 -16.827052 -60.224838 -15.193274 -26.101795 -19.757432 -18.977373 45.071828 -9.320638 0.736193 -14.308487 -5.752724 15.919860 -5.268858 -3.946781 10.611416 0.000000 0.000000 0.000000 -23.239681 -63.480161 -20.961985 5.625220 12.362344 4.324548 3.122329 2.695072 1.661540 -0.050781 4.861332 0.311248 0.000000 0.000000 0.000000 13.950802 5.910724 -2.051394 12.015128 7.532339 -2.045623 23.717647 43.329176 -12.648863 0.000000 0.000000 0.000000 14.043685 5.211859 -1.920685 10.013574 -10.562691 -6.502338 -2.768033 -12.144142 -5.359535 2.571594 -10.069533 -35.898409 -86.264593 8.264914 -80.184037 0.000000 0.000000 0.000000 14.731774 6.569270 -0.088253 2.944575 7.132497 -10.751805 -2.381316 -1.263147 -11.858812 -10.221241 33.459819 42.225175 -68.788358 74.488349 57.260607 0.000000 0.000000 0.000000 
-7.511926 90.873672 5.300892 0.000000 0.000000 0.000000 -16.029436 -65.256747 -17.055061 -39.098779 -0.549697 26.303345 44.328194 9.102621 -5.429968 -0.336481 2.461973 -11.262896 0.872962 1.921817 2.090604 0.000000 0.000000 0.000000 -15.567150 -59.496425 -14.000701 -26.484574 -18.680829 -17.930483 45.794684 -8.665606 0.026002 -13.466965 -6.525438 16.058191 -6.020739 -3.948058 10.318056 0.000000 0.000000 0.000000 -20.284439 -62.866823 -18.426455 5.970754 12.277041 4.670733 3.206687 3.850636 1.568135 -0.356895 5.690017 0.331583 0.000000 0.000000 0.000000 13.970750 7.065385 -2.207853 10.727190 7.657118 -2.294969 22.269026 44.412882 -13.838564 0.000000 0.000000 0.000000 14.020176 6.514402 -2.145561 10.123804 -10.478952 -5.417464 -3.709832 -10.044638 -6.418800 -0.337214 -7.374485 -37.930049 -86.847747 8.601660 -80.510616 0.000000 0.000000 0.000000 15.423713 7.899277 -0.439137 3.081737 10.094088 -10.795660 -2.847823 -1.413482 -12.832939 -8.634057 35.367068 42.122965 -70.704991 74.466233 59.021338 0.000000 0.000000 0.000000 
-7.265830 91.160110 6.622536 0.000000 0.000000 0.000000 -15.057306 -63.382885 -15.689576 -40.639506 1.471519 25.452164 45.599576 8.108518 -5.305016 -2.471445 2.863838 -9.734840 0.018389 1.770261 2.898101 0.000000 0.000000 0.000000 -14.284422 -58.101496 -12.604509 -27.388362 -17.205614 -16.577568 46.614112 -7.390823 -1.000169 -12.327336 -7.109403 16.714047 -7.684383 -3.739806 9.157860 0.000000 0.000000 0.000000 -16.959939 -61.963456 -15.408133 6.311654 12.134081 5.274405 2.914674 5.525314 1.398700 -0.500469 5.576767 0.223230 0.000000 0.000000 0.000000 14.045454 8.719932 -2.439624 8.760351 8.210297 -2.750963 20.644585 45.629355 -15.616606 0.000000 0.000000 0.000000 13.814048 8.382231 -2.483585 10.159928 -10.769438 -4.023775 -3.653402 -8.639074 -7.177561 -4.529206 -4.989475 -40.690739 -87.375659 8.654641 -80.932817 0.000000 0.000000 0.000000 16.016128 9.748527 -0.992278 3.475338 13.358380 -10.388210 -3.343993 -3.338528 -13.720631 -6.493765 36.861643 41.661596 -73.301454 74.224963 61.438911 0.000000 0.000000 0.000000 
-6.889680 91.283386 7.881657 0.000000 0.000000 0.000000 -13.761942 -60.898595 -13.970617 -42.452402 3.283482 24.065709 46.757467 6.755609 -4.837558 -3.936575 3.164035 -8.438513 -0.739479 1.590928 3.303063 0.000000 0.000000 0.000000 -13.080038 -56.209592 -11.153422 -28.547621 -15.345673 -14.977341 47.331623 -5.673015 -2.310646 -11.618148 -7.484442 17.327865 -9.473350 -3.266221 7.364330 0.000000 0.000000 0.000000 -13.795001 -60.777065 -12.461630 6.627594 11.810853 5.857495 2.333344 7.365912 1.234521 -0.735145 4.937576 0.516251 0.000000 0.000000 0.000000 14.156561 10.550544 -2.672022 6.261272 9.152881 -2.966666 19.318886 46.875848 -17.701036 0.000000 0.000000 0.000000 13.633340 10.404186 -2.916862 10.196474 -11.329579 -2.558845 -3.064670 -7.597312 -7.337636 -9.593457 -3.541698 -43.480882 -87.228107 8.633942 -80.862500 0.000000 0.000000 0.000000 16.385644 11.737173 -1.626207 3.987548 16.494950 -9.789266 -3.796956 -5.614583 -14.067052 -4.798150 37.618319 41.533199 -77.545453 73.871556 65.512565 0.000000 0.000000 0.000000 
-6.507250 91.358444 8.915089 0.000000 0.000000 0.000000 -12.128226 -57.916999 -12.001647 -44.203482 4.586587 22.292832 47.287473 5.197410 -4.001805 -3.993182 3.198106 -7.649382 -0.997357 1.358895 3.260822 0.000000 0.000000 0.000000 -11.668989 -53.924729 -9.582117 -29.513582 -13.199499 -13.179934 47.914600 -3.754975 -3.707397 -11.814299 -7.626837 17.312317 -10.600658 -2.571168 5.323819 0.000000 0.000000 0.000000 -11.083613 -59.596624 -10.034128 6.963621 11.245109 6.168282 1.535265 9.117970 1.150264 -0.770425 4.072929 0.817261 0.000000 0.000000 0.000000 14.157250 12.290133 -2.895506 3.529940 10.462342 -2.644177 18.731044 48.296206 -19.699230 0.000000 0.000000 0.000000 13.607170 12.220091 -3.402549 10.263025 -11.936924 -1.202362 -2.170198 -6.762571 -7.297801 -14.822757 -3.405403 -45.830334 -86.282378 8.669358 -80.227853 0.000000 0.000000 0.000000 16.560671 13.565525 -2.264206 4.518544 19.012492 -9.195987 -3.845477 -7.186507 -14.206269 -4.568065 37.590796 42.501774 -82.900834 73.375780 70.761771 0.000000 0.000000 0.000000 
-6.112534 91.442757 10.199306 0.000000 0.000000 0.000000 -10.361546 -54.654450 -9.975005 -45.607970 5.251878 20.421929 46.894658 3.455761 -2.891009 -2.687142 2.779146 -7.293243 -0.634870 1.056200 2.926058 0.000000 0.000000 0.000000 -10.120239 -51.416329 -7.940676 -30.217590 -10.860231 -11.264883 48.704843 -1.862608 -4.947240 -12.415847 -7.479082 16.489991 -10.854855 -1.750397 3.352869 0.000000 0.000000 0.000000 -8.778747 -58.495482 -8.180664 7.341626 10.511966 6.080558 0.669900 10.655098 1.156034 -0.624131 3.558765 1.068577 0.000000 0.000000 0.000000 13.977989 13.834096 -3.094429 0.918848 12.084204 -1.723714 18.522612 49.755223 -20.890612 0.000000 0.000000 0.000000 13.798205 13.723617 -3.884075 10.284416 -12.392945 -0.151960 -0.946260 -5.809650 -7.465890 -19.518102 -4.364641 -47.717173 -84.833934 8.760325 -79.438256 0.000000 0.000000 0.000000 16.517617 15.111771 -2.847664 4.942602 20.830670 -8.820494 -3.638258 -8.123817 -13.968335 -5.727454 37.062283 44.757041 -88.089278 72.818184 75.979878 0.000000 0.000000 0.000000 
-5.766286 91.544250 11.803085 0.000000 0.000000 0.000000 -8.560097 -51.173208 -8.032913 -46.478604 5.133317 18.654572 45.618103 1.681897 -1.648847 -0.914090 1.836176 -6.933947 0.544547 0.691359 2.395127 0.000000 0.000000 0.000000 -8.560582 -48.563038 -6.293680 -30.676890 -8.536539 -9.270449 49.974005 -0.092811 -5.893113 -12.680283 -6.970529 15.224215 -10.404261 -0.926313 1.702772 0.000000 0.000000 0.000000 -6.954628 -57.354102 -6.861392 7.884069 9.719415 5.564526 -0.140264 11.976998 1.203652 -0.774682 3.680593 1.038480 0.000000 0.000000 0.000000 13.635114 15.170970 -3.232452 -1.221059 13.674323 -0.374984 18.357194 51.334831 -20.896327 0.000000 0.000000 0.000000 14.093682 14.967501 -4.270154 10.183634 -12.449217 0.499882 -0.221210 -4.727900 -7.618186 -22.771130 -5.934276 -49.122037 -83.505886 8.975500 -79.054064 0.000000 0.000000 0.000000 16.363257 16.409449 -3.276654 5.257349 21.868165 -8.736249 -3.660380 -8.301167 -13.700712 -7.455985 36.425508 47.776326 -92.518908 72.426602 80.618649 0.000000 0.000000 0.000000 
-5.522331 91.612091 13.704018 0.000000 0.000000 0.000000 -7.019338 -47.362919 -6.419672 -46.711869 4.109080 16.816011 43.984127 0.161583 -0.403536 0.438822 0.500625 -6.213861 2.175908 0.309946 1.834848 0.000000 0.000000 0.000000 -7.178501 -45.418033 -4.846190 -30.940866 -6.649431 -7.306378 51.270238 1.540304 -6.534094 -12.309544 -6.009629 13.886803 -9.496698 -0.236274 0.674136 0.000000 0.000000 0.000000 -5.574295 -55.935168 -5.878529 8.603598 9.024813 4.798833 -0.851748 13.143291 1.274554 -0.779624 4.149282 0.483531 0.000000 0.000000 0.000000 13.150223 16.378172 -3.326640 -2.487474 14.957428 1.154559 17.710551 52.883908 -19.474049 0.000000 0.000000 0.000000 14.310242 16.094502 -4.494681 9.935754 -12.318332 0.738001 -0.240601 -3.770174 -7.545825 -24.487359 -7.539264 -50.070098 -82.486542 9.318206 -79.222360 0.000000 0.000000 0.000000 16.298382 17.554549 -3.594925 5.476066 22.064752 -8.829985 -4.291356 -7.637600 -13.442392 -8.730282 35.785274 50.815883 -96.377200 72.404868 84.903377 0.000000 0.000000 0.000000 
